<svg xmlns="http://www.w3.org/2000/svg" xmlns:xlink="http://www.w3.org/1999/xlink" viewBox="0 0 22 27.5" version="1.1" x="0px" y="0px"><title>info-solid</title><desc>Created with Sketch.</desc><g stroke="none" stroke-width="1" fill="none" fill-rule="evenodd"><g transform="translate(-239.000000, -289.000000)" fill="#000000"><path d="M250,289.002289 C256.065714,289.002289 261,293.936575 261,300.002289 C261,306.068003 256.065714,311.002289 250,311.002289 C243.934286,311.002289 239,306.068003 239,300.002289 C239,293.936575 243.934286,289.002289 250,289.002289 Z M251.76593,297.199871 L249.010191,297.199871 L247.711235,303.336915 C247.661496,303.579871 247.624191,303.805611 247.599322,304.014132 C247.574452,304.222654 247.562017,304.413958 247.562017,304.589002 C247.562017,304.993611 247.614626,305.338915 247.7208,305.625871 C247.826974,305.912828 247.971409,306.149089 248.155061,306.335611 C248.338713,306.522132 248.555843,306.659871 248.804539,306.746915 C249.053235,306.833002 249.321061,306.877002 249.608017,306.877002 C249.856713,306.877002 250.102539,306.837784 250.345496,306.760306 C250.588452,306.682828 250.806539,306.562306 250.999757,306.400654 C251.192017,306.239002 251.352713,306.034306 251.480887,305.789437 C251.608104,305.543611 251.684626,305.249002 251.709496,304.906567 C251.640626,304.937176 251.566017,304.964915 251.48567,304.990741 C251.404365,305.015611 251.273322,305.028045 251.092539,305.028045 C250.82567,305.028045 250.629583,304.976393 250.504278,304.874045 C250.37993,304.770741 250.317757,304.586132 250.317757,304.318306 C250.317757,304.217871 250.322539,304.117437 250.332104,304.014132 C250.340713,303.911784 250.3608,303.806567 250.392365,303.70135 L251.76593,297.199871 Z M250.906017,293.126906 C250.694626,293.126906 250.496626,293.16708 250.312974,293.248384 C250.129322,293.329689 249.968626,293.440645 249.831843,293.580298 C249.695061,293.71995 249.58793,293.881602 249.509496,294.066211 C249.432017,294.249863 249.3928,294.446906 249.3928,294.659254 C249.3928,294.871602 249.432017,295.068645 249.509496,295.252298 C249.58793,295.43595 249.695061,295.594732 249.831843,295.728645 C249.968626,295.862558 250.129322,295.968732 250.312974,296.046211 C250.496626,296.123689 250.694626,296.162906 250.906017,296.162906 C251.117409,296.162906 251.315409,296.123689 251.499061,296.046211 C251.682713,295.968732 251.845322,295.862558 251.984974,295.728645 C252.124626,295.594732 252.235583,295.43595 252.316887,295.252298 C252.397235,295.068645 252.438365,294.871602 252.438365,294.659254 C252.438365,294.446906 252.397235,294.249863 252.316887,294.066211 C252.235583,293.881602 252.124626,293.71995 251.984974,293.580298 C251.845322,293.440645 251.682713,293.329689 251.499061,293.248384 C251.315409,293.16708 251.117409,293.126906 250.906017,293.126906 Z"/></g></g><text x="0" y="37" fill="#000000" font-size="5px" font-weight="bold" font-family="'Helvetica Neue', Helvetica, Arial-Unicode, Arial, Sans-serif">Created by Danny Amacher</text><text x="0" y="42" fill="#000000" font-size="5px" font-weight="bold" font-family="'Helvetica Neue', Helvetica, Arial-Unicode, Arial, Sans-serif">from the Noun Project</text></svg>